<svg width="1440" height="1081" viewBox="0 0 1440 1081" fill="none" xmlns="http://www.w3.org/2000/svg">
<path d="M3.33912 212.475C-45.4492 113.377 -4.6651 -6.50878 94.433 -55.2971L1027.48 -514.66C1126.58 -563.449 1246.47 -522.665 1295.26 -423.567L1603.75 203.049C1652.54 302.147 1611.76 422.032 1512.66 470.821L579.609 930.184C480.511 978.972 360.625 938.188 311.837 839.09L3.33912 212.475Z" fill="url(#paint0_linear)"/>
<path d="M-36.192 271.877C-100.151 181.822 -78.9956 56.9684 11.0598 -6.99065L858.971 -609.192C949.026 -673.151 1073.88 -651.996 1137.84 -561.941L1542.26 7.49609C1606.22 97.5515 1585.07 222.405 1495.01 286.364L647.1 888.566C557.045 952.525 432.191 931.369 368.232 841.314L-36.192 271.877Z" fill="url(#paint1_linear)"/>
<path d="M-36.192 271.877C-100.151 181.822 -78.9956 56.9684 11.0598 -6.99065L858.971 -609.192C949.026 -673.151 1073.88 -651.996 1137.84 -561.941L1542.26 7.49609C1606.22 97.5515 1585.07 222.405 1495.01 286.364L647.1 888.566C557.045 952.525 432.191 931.369 368.232 841.314L-36.192 271.877Z" fill="url(#paint2_linear)"/>
<path opacity="0.0444444" d="M31.4967 263.679C-42.882 182.559 -37.4164 56.5013 43.7045 -17.8774L751.295 -666.658C832.415 -741.037 958.473 -735.571 1032.85 -654.45L1450.8 -198.615C1525.18 -117.494 1519.71 8.56288 1438.59 82.9415L731.003 731.722C649.882 806.101 523.825 800.635 449.446 719.514L31.4967 263.679Z" stroke="#5D25AC" stroke-width="1.44444"/>
<path opacity="0.0888889" d="M23.116 262.076C-49.7543 179.761 -42.098 53.9593 40.2167 -18.9109L766.509 -661.872C848.824 -734.742 974.626 -727.086 1047.5 -644.771L1464.06 -174.224C1536.93 -91.9094 1529.27 33.8928 1446.95 106.763L720.662 749.724C638.347 822.594 512.545 814.938 439.675 732.623L23.116 262.076Z" stroke="#712BA1" stroke-width="1.88889"/>
<path opacity="0.133333" d="M14.6999 260.433C-56.643 176.953 -46.8033 51.4436 36.6773 -19.8992L781.683 -656.584C865.163 -727.926 990.673 -718.087 1062.02 -634.606L1476.8 -149.259C1548.14 -65.7779 1538.3 59.7313 1454.82 131.074L709.812 767.758C626.332 839.101 500.823 829.262 429.48 745.781L14.6999 260.433Z" stroke="#853295" stroke-width="2.33333"/>
<path opacity="0.177778" d="M6.24898 258.75C-63.548 174.132 -51.5328 48.9537 33.0855 -20.8432L796.804 -650.792C881.422 -720.588 1006.6 -708.573 1076.4 -623.955L1489.01 -123.728C1558.8 -39.1098 1546.79 86.0685 1462.17 155.865L698.452 785.814C613.833 855.611 488.655 843.596 418.858 758.977L6.24898 258.75Z" stroke="#993889" stroke-width="2.77778"/>
<path opacity="0.222222" d="M-2.23603 257.027C-70.4691 171.299 -56.2871 46.4893 29.4404 -21.7438L811.86 -644.495C897.588 -712.728 1022.4 -698.546 1090.63 -612.818L1500.67 -97.6426C1568.91 -11.9151 1554.73 112.895 1469 181.128L686.578 803.879C600.85 872.112 476.041 857.93 407.808 772.202L-2.23603 257.027Z" stroke="#AC3F7E" stroke-width="3.22222"/>
<path opacity="0.266667" d="M-10.7546 255.262C-77.4064 168.454 -61.0666 44.0498 25.7413 -22.602L826.842 -637.693C913.65 -704.345 1038.05 -688.005 1104.71 -601.197L1511.79 -71.0119C1578.44 15.7961 1562.1 140.2 1475.29 206.852L674.189 821.943C587.381 888.595 462.977 872.255 396.326 785.447L-10.7546 255.262Z" stroke="#C04572" stroke-width="3.66667"/>
<path opacity="0.311111" d="M-19.306 253.456C-84.3596 165.596 -65.8719 41.6358 21.9874 -23.4178L841.738 -630.385C929.597 -695.438 1053.56 -676.951 1118.61 -589.091L1522.33 -43.8456C1587.38 44.0138 1568.89 167.974 1481.03 233.028L661.283 839.995C573.424 905.049 449.463 886.561 384.41 798.702L-19.306 253.456Z" stroke="#D44C66" stroke-width="4.11111"/>
<path opacity="0.355556" d="M-27.8893 251.606C-91.3283 162.725 -70.7032 39.2448 18.1782 -24.1942L856.536 -622.572C945.418 -686.011 1068.9 -665.386 1132.34 -576.504L1532.28 -16.1561C1595.72 72.7252 1575.1 196.205 1486.22 259.644L647.859 858.022C558.978 921.461 435.498 900.836 372.059 811.954L-27.8893 251.606Z" stroke="#E8525B" stroke-width="4.55556"/>
<path opacity="0.4" d="M-36.5043 249.714C-98.3129 159.84 -75.5615 36.8773 14.3124 -24.9313L871.225 -614.253C961.099 -676.061 1084.06 -653.31 1145.87 -563.436L1541.65 12.0462C1603.45 101.92 1580.7 224.883 1490.83 286.692L633.915 876.013C544.041 937.822 421.078 915.07 359.27 825.197L-36.5043 249.714Z" stroke="#FC594F" stroke-width="5"/>
<defs>
<linearGradient id="paint0_linear" x1="64.1459" y1="470.043" x2="1856.78" y2="386.573" gradientUnits="userSpaceOnUse">
<stop stop-color="#0095FF"/>
<stop offset="1" stop-color="#2FB8FF"/>
</linearGradient>
<linearGradient id="paint1_linear" x1="64.8889" y1="516.461" x2="1821.3" y2="148.347" gradientUnits="userSpaceOnUse">
<stop stop-color="#9310FD"/>
<stop offset="1" stop-color="#2FB8FF"/>
</linearGradient>
<linearGradient id="paint2_linear" x1="64.8889" y1="516.461" x2="1821.3" y2="148.347" gradientUnits="userSpaceOnUse">
<stop stop-color="#9310FD"/>
<stop offset="1" stop-color="#2FB8FF"/>
</linearGradient>
</defs>
</svg>
