<svg width="748" height="669" viewBox="0 0 748 669" fill="none" xmlns="http://www.w3.org/2000/svg">
<g clip-path="url(#clip0)">
<path d="M700.049 130.284C726.769 169.269 720.857 219.771 720.857 219.771C720.857 219.771 671.622 207.067 644.902 168.081C618.182 129.096 624.095 78.5938 624.095 78.5938C624.095 78.5938 673.329 91.2987 700.049 130.284Z" fill="#2F2E41"/>
<path d="M680.824 137.728C683.951 184.888 719.841 220.907 719.841 220.907C719.841 220.907 750.661 180.465 747.535 133.306C744.408 86.1459 708.518 50.127 708.518 50.127C708.518 50.127 677.697 90.5688 680.824 137.728Z" fill="url(#paint0_linear)"/>
<path d="M374.046 0.981953L736.821 183.371C739.837 184.888 742.339 187.261 744.013 190.193C745.687 193.124 746.458 196.485 746.231 199.854L725.154 512.058C725.059 513.458 724.619 514.813 723.873 516.002C723.128 517.191 722.099 518.177 720.879 518.871C719.66 519.566 718.287 519.948 716.884 519.982C715.481 520.017 714.091 519.704 712.839 519.071L341.792 329.707L360.841 8.5927C360.93 7.0843 361.393 5.62175 362.187 4.33639C362.982 3.05104 364.083 1.98314 365.392 1.2286C366.702 0.474066 368.178 0.0565207 369.688 0.0134697C371.198 -0.0295812 372.696 0.303209 374.046 0.981953V0.981953Z" fill="#D0CDE1"/>
<path d="M378.221 7.34479L732.085 185.254C735.027 186.734 737.468 189.048 739.101 191.908C740.733 194.768 741.486 198.046 741.264 201.332L720.705 505.867C720.612 507.233 720.183 508.555 719.456 509.715C718.728 510.875 717.725 511.836 716.536 512.513C715.346 513.191 714.007 513.563 712.638 513.597C711.27 513.631 709.914 513.326 708.692 512.708L346.759 327.996L365.34 14.7686C365.428 13.2973 365.879 11.8706 366.654 10.6168C367.429 9.36306 368.503 8.32139 369.78 7.58538C371.057 6.84938 372.497 6.44209 373.97 6.4001C375.444 6.3581 376.904 6.68272 378.221 7.34479V7.34479Z" fill="#2F2E41"/>
<path d="M393.729 30.9748L714.497 192.245C717.164 193.585 719.376 195.683 720.856 198.276C722.336 200.868 723.018 203.84 722.817 206.818L704.181 482.871C704.097 484.109 703.708 485.307 703.049 486.358C702.389 487.41 701.48 488.281 700.401 488.895C699.323 489.509 698.109 489.847 696.869 489.878C695.628 489.909 694.399 489.632 693.292 489.072L365.21 321.635L382.053 37.7043C382.132 36.3706 382.542 35.0774 383.244 33.9409C383.946 32.8044 384.92 31.8601 386.078 31.1929C387.235 30.5258 388.541 30.1566 389.876 30.1185C391.212 30.0804 392.536 30.3747 393.729 30.9748V30.9748Z" fill="white"/>
<path d="M62.7459 483.33L425.984 666.262C429.364 667.962 433.096 668.845 436.88 668.84C440.664 668.835 444.394 667.942 447.77 666.234L716.483 529.826C719.634 526.675 719.194 522.006 718.186 518.5C717.697 516.803 717.031 515.162 716.2 513.604L679.582 494.344L371.71 340.735L353.316 330.97C348.447 328.391 343.024 327.032 337.514 327.01C332.004 326.988 326.571 328.303 321.68 330.842L62.6322 465.405C60.9841 466.257 59.6038 467.548 58.6442 469.136C57.6845 470.724 57.1828 472.547 57.1945 474.402C57.2063 476.258 57.7311 478.074 58.7108 479.649C59.6906 481.225 61.0871 482.499 62.7459 483.33V483.33Z" fill="#D0CDE1"/>
<path opacity="0.1" d="M62.7459 483.331L425.984 666.263C429.364 667.962 433.096 668.845 436.88 668.84C440.664 668.835 444.394 667.943 447.77 666.234L716.483 529.826C719.634 526.676 719.194 522.006 718.186 518.5L450.276 657.754C447.007 659.453 443.382 660.355 439.698 660.387C436.014 660.419 432.374 659.579 429.077 657.936L57.3241 472.729C56.9746 474.843 57.3127 477.014 58.2886 478.923C59.2645 480.831 60.8268 482.376 62.7459 483.331V483.331Z" fill="black"/>
<path opacity="0.1" d="M407.517 538.142L289.881 478.697C287.513 477.5 284.892 476.891 282.238 476.921C279.585 476.951 276.978 477.62 274.637 478.87L206.397 515.327C205.608 515.749 204.951 516.378 204.495 517.148C204.04 517.917 203.805 518.797 203.816 519.691C203.826 520.585 204.082 521.458 204.555 522.217C205.028 522.975 205.701 523.589 206.499 523.992L326.44 584.475C328.432 585.479 330.64 585.978 332.87 585.926C335.1 585.875 337.283 585.276 339.226 584.181L407.739 545.582C408.407 545.206 408.959 544.654 409.336 543.986C409.713 543.319 409.9 542.561 409.877 541.795C409.854 541.028 409.622 540.283 409.206 539.639C408.79 538.995 408.206 538.477 407.517 538.142V538.142Z" fill="black"/>
<path opacity="0.1" d="M684.565 528.199L557.979 595.448C556.523 596.222 554.901 596.635 553.252 596.651C551.603 596.668 549.974 596.288 548.502 595.544L190.842 414.674C189.834 414.164 188.988 413.384 188.398 412.421C187.809 411.457 187.499 410.349 187.504 409.22C187.509 408.09 187.828 406.985 188.426 406.027C189.024 405.068 189.876 404.296 190.888 403.795L314.503 342.612C316.366 341.69 318.418 341.213 320.497 341.221C322.575 341.228 324.624 341.719 326.48 342.654L684.51 523.046C684.985 523.285 685.385 523.651 685.666 524.102C685.948 524.554 686.1 525.074 686.105 525.606C686.111 526.138 685.97 526.661 685.699 527.118C685.427 527.576 685.035 527.95 684.565 528.199Z" fill="black"/>
<path d="M482.618 192.82L481.984 194.09L598.365 252.281L599 251.011L482.618 192.82Z" fill="#6C63FF"/>
<path d="M482.608 209.888L481.962 211.15L598.375 270.699L599.021 269.436L482.608 209.888Z" fill="#6C63FF"/>
<path d="M503.918 242.49L503.272 243.754L569.969 277.834L570.615 276.57L503.918 242.49Z" fill="#6C63FF"/>
<path d="M139.527 313.547C139.527 313.547 111.146 301.181 97.8163 314.244C84.486 327.308 133.507 323.008 139.527 313.547Z" fill="url(#paint1_linear)"/>
<path d="M90.5214 254.898C100.059 238.783 118.928 238.031 118.928 238.031C118.928 238.031 137.315 235.68 149.11 260.224C160.104 283.101 175.276 305.189 151.552 310.544L147.267 297.206L144.613 311.537C141.235 311.78 137.847 311.838 134.463 311.711C109.056 310.89 84.86 311.951 85.6391 302.834C86.6747 290.714 81.3445 270.404 90.5214 254.898Z" fill="#2F2E41"/>
<path d="M77.1759 547.041C77.1759 547.041 89.2161 569.401 96.9563 569.401C104.696 569.401 103.836 584.022 102.116 587.462C100.396 590.902 96.0963 598.642 102.976 609.822C105.38 613.727 104.95 618.157 103.373 622.269C98.954 633.789 81.7657 630.299 82.3141 617.972C82.3201 617.837 82.3274 617.7 82.3361 617.562C83.1961 603.802 76.316 582.302 69.4359 577.142C62.5557 571.981 56.5356 558.221 56.5356 558.221L77.1759 547.041Z" fill="#FFB8B8"/>
<path d="M159.737 541.881C159.737 541.881 147.697 564.241 139.957 564.241C132.217 564.241 133.077 578.861 134.797 582.302C136.517 585.742 140.817 593.482 133.937 604.662C131.534 608.567 131.964 612.997 133.541 617.109C137.959 628.629 155.147 625.138 154.599 612.812C154.593 612.676 154.586 612.54 154.577 612.402C153.717 598.642 160.597 577.141 167.477 571.981C174.357 566.821 180.378 553.061 180.378 553.061L159.737 541.881Z" fill="#FFB8B8"/>
<path d="M150.277 431.798L155.437 442.978C155.437 442.978 231.118 467.919 224.238 497.159C217.358 526.4 183.818 571.98 178.658 570.26C173.497 568.54 145.977 563.38 145.117 548.76C144.257 534.14 164.897 508.339 164.897 508.339L136.517 482.539L95.2187 481.679L59.9757 508.339C59.9757 508.339 96.9562 541.02 80.616 553.92C64.2757 566.82 40.1953 575.42 36.7553 570.26C33.3152 565.1 -5.38539 488.559 0.634696 481.679C6.65479 474.799 67.7158 448.998 67.7158 448.998L84.056 425.778L147.697 422.338L150.277 431.798Z" fill="#2F2E41"/>
<path d="M134.797 289.896C134.797 289.896 130.497 318.277 139.097 321.717C147.697 325.157 121.897 339.777 121.897 339.777H107.276L97.8163 319.997C97.8163 319.997 106.416 304.517 101.256 289.896C96.0963 275.276 134.797 289.896 134.797 289.896Z" fill="#FFB8B8"/>
<path opacity="0.1" d="M134.797 289.896C134.797 289.896 130.497 318.277 139.097 321.717C147.697 325.157 121.897 339.777 121.897 339.777H107.276L97.8163 319.997C97.8163 319.997 106.416 304.517 101.256 289.896C96.0963 275.276 134.797 289.896 134.797 289.896Z" fill="black"/>
<path d="M140.817 313.977C140.817 313.977 131.357 324.297 129.637 326.017C127.917 327.737 120.177 337.197 103.836 323.437C87.4961 309.677 85.7761 326.017 85.7761 326.017V429.218C85.7761 429.218 99.5363 423.198 110.717 429.218C121.897 435.239 145.117 427.498 145.117 427.498L149.417 320.857L140.817 313.977Z" fill="#D0CDE1"/>
<path d="M134.5 313.976C134.5 313.976 142.537 310.536 149.417 313.976C156.297 317.416 180.378 334.617 178.657 342.357C176.937 350.097 154.577 404.278 170.057 430.078C185.538 455.878 188.118 462.759 188.118 462.759L150.277 442.978C150.277 442.978 121.037 424.918 123.617 413.738C126.197 402.558 134.5 313.976 134.5 313.976Z" fill="url(#paint2_linear)"/>
<path d="M100.386 313.977C100.386 313.977 82.336 315.697 81.4759 317.417C80.6159 319.137 54.3855 326.447 56.1055 334.187C57.8256 341.927 81.4759 411.158 71.1558 424.058C60.8356 436.959 43.6354 455.019 49.6554 456.739C55.6755 458.459 65.9957 454.159 76.3159 456.739C86.636 459.319 110.716 437.819 108.136 414.598C105.556 391.378 108.116 319.997 100.386 313.977Z" fill="url(#paint3_linear)"/>
<path d="M143.397 478.24V486.84C143.397 486.84 147.697 506.62 133.937 505.76C120.177 504.9 128.777 481.68 128.777 481.68L129.637 473.939L143.397 478.24Z" fill="#FFB8B8"/>
<path d="M104.696 479.1C104.696 479.1 114.156 498.88 104.696 500.6C95.2362 502.32 88.3561 489.42 88.3561 485.98C88.3561 482.54 104.696 479.1 104.696 479.1Z" fill="#FFB8B8"/>
<path d="M92.2261 281.726C93.1761 281.726 93.9462 280.186 93.9462 278.286C93.9462 276.386 93.1761 274.846 92.2261 274.846C91.2762 274.846 90.5061 276.386 90.5061 278.286C90.5061 280.186 91.2762 281.726 92.2261 281.726Z" fill="#FFB8B8"/>
<path d="M142.967 281.726C143.917 281.726 144.687 280.186 144.687 278.286C144.687 276.386 143.917 274.846 142.967 274.846C142.017 274.846 141.247 276.386 141.247 278.286C141.247 280.186 142.017 281.726 142.967 281.726Z" fill="#FFB8B8"/>
<path d="M77.1759 325.156C77.1759 325.156 55.6756 325.156 56.5356 333.756C57.3956 342.357 85.7761 490.279 85.7761 490.279C85.7761 490.279 97.8163 479.099 108.136 481.679L77.1759 325.156Z" fill="url(#paint4_linear)"/>
<path d="M160.597 327.736C160.597 327.736 182.098 332.036 182.098 344.937C182.098 357.837 151.137 481.679 146.837 481.679C142.537 481.679 126.197 479.099 126.197 474.799C126.197 470.499 160.597 327.736 160.597 327.736Z" fill="url(#paint5_linear)"/>
<path opacity="0.2" d="M155.867 353.107L136.517 428.781C136.517 428.781 145.547 362.568 155.867 353.107Z" fill="black"/>
<path opacity="0.2" d="M80.6013 342.475L100.172 441.414C100.172 441.414 93.9169 348.182 80.6013 342.475Z" fill="black"/>
<path d="M117.597 303.656C131.371 303.656 142.537 292.49 142.537 278.716C142.537 264.942 131.371 253.775 117.597 253.775C103.822 253.775 92.6561 264.942 92.6561 278.716C92.6561 292.49 103.822 303.656 117.597 303.656Z" fill="#FFB8B8"/>
<path d="M94.738 253.344L113.38 243.58L139.123 247.574L144.449 271.098L131.191 270.589L127.487 261.946V270.446L121.369 270.211L117.818 256.451L115.599 271.098L93.85 270.655L94.738 253.344Z" fill="#2F2E41"/>
<path d="M374.28 108.551L364 133L450.768 178.545L480 93" fill="#F2F2F2"/>
<path d="M448.768 163.545L487.099 73.352L399 30L362 118L448.768 163.545Z" fill="url(#paint6_linear)"/>
<path d="M396.918 64.4898L396.272 65.7539L462.969 99.8341L463.615 98.57L396.918 64.4898Z" fill="white"/>
<path d="M391.918 76.4898L391.272 77.7539L457.969 111.834L458.615 110.57L391.918 76.4898Z" fill="white"/>
</g>
<defs>
<linearGradient id="paint0_linear" x1="704.651" y1="160.517" x2="731.778" y2="210.137" gradientUnits="userSpaceOnUse">
<stop stop-color="#027A92"/>
<stop offset="0.987315" stop-color="#7B13B3"/>
<stop offset="0.9999" stop-color="#B58FE2"/>
</linearGradient>
<linearGradient id="paint1_linear" x1="117.528" y1="308.252" x2="117.528" y2="322.444" gradientUnits="userSpaceOnUse">
<stop stop-color="#067A91"/>
<stop offset="1" stop-color="#12CBD7"/>
</linearGradient>
<linearGradient id="paint2_linear" x1="155.787" y1="312.447" x2="155.787" y2="462.759" gradientUnits="userSpaceOnUse">
<stop stop-color="#067A91"/>
<stop offset="1" stop-color="#12CBD7"/>
</linearGradient>
<linearGradient id="paint3_linear" x1="78.3689" y1="313.977" x2="78.3689" y2="457.158" gradientUnits="userSpaceOnUse">
<stop stop-color="#067A91"/>
<stop offset="1" stop-color="#12CBD7"/>
</linearGradient>
<linearGradient id="paint4_linear" x1="82.3235" y1="325.156" x2="82.3235" y2="490.279" gradientUnits="userSpaceOnUse">
<stop stop-color="#067A91"/>
<stop offset="1" stop-color="#12CBD7"/>
</linearGradient>
<linearGradient id="paint5_linear" x1="154.147" y1="327.736" x2="154.147" y2="481.679" gradientUnits="userSpaceOnUse">
<stop stop-color="#067A91"/>
<stop offset="1" stop-color="#12CBD7"/>
</linearGradient>
<linearGradient id="paint6_linear" x1="424.549" y1="30" x2="424.549" y2="163.545" gradientUnits="userSpaceOnUse">
<stop stop-color="#04A7BA"/>
<stop offset="1" stop-color="#017E95"/>
</linearGradient>
<clipPath id="clip0">
<rect width="747.758" height="668.841" fill="white"/>
</clipPath>
</defs>
</svg>
